Coordinates
version=1
nRows=29
nColumns=24
inDegrees=yes

Units are S.I. units (second, meters, Newtons, ...)
Angles are in degrees.

endheader
time	pelvis_tilt	pelvis_list	pelvis_rotation	pelvis_tx	pelvis_ty	pelvis_tz	hip_flexion_r	hip_adduction_r	hip_rotation_r	knee_angle_r	ankle_angle_r	subtalar_angle_r	mtp_angle_r	hip_flexion_l	hip_adduction_l	hip_rotation_l	knee_angle_l	ankle_angle_l	subtalar_angle_l	mtp_angle_l	lumbar_extension	lumbar_bending	lumbar_rotation
      1.61466667	      1.96508776	      7.65140942	     -1.58624668	      0.54139050	      0.99692486	      0.26619736	     19.02468406	     -9.56544596	      1.33755388	    -63.56809542	      7.05721129	    -11.22766307	      0.18667975	      1.76132549	     14.20753757	      3.75952812	     -7.70330882	      2.05318388	    -16.67894435	     -1.96477227	     -1.64354348	     -6.07430550	      3.22067505
      1.61883333	      2.03926242	      7.53356899	     -1.43098194	      0.54605902	      0.99732851	      0.26593249	     19.43876159	     -9.41093370	      1.27966868	    -62.91032141	      7.44855322	    -11.28256141	      0.03147555	      1.19076861	     14.10223059	      4.07973154	     -7.40251385	      2.07158380	    -16.80569956	     -2.01323198	     -1.78147035	     -5.94955204	      3.01971463
      1.62300000	      2.09970361	      7.42674934	     -1.27298447	      0.55071337	      0.99767253	      0.26567574	     19.85937767	     -9.26951535	      1.22039003	    -62.22449132	      7.81148737	    -11.32538119	     -0.13316935	      0.64265198	     14.00352593	      4.39253739	     -7.11220882	      2.10347903	    -16.92211013	     -2.06199212	     -1.90557162	     -5.83603804	      2.82512541
      1.62716667	      2.17413780	      7.31725017	     -1.11533631	      0.55536753	      0.99800728	      0.26543186	     20.24717018	     -9.12627440	      1.15480132	    -61.49618358	      8.13561179	    -11.37083497	     -0.29515780	      0.08379918	     13.89684566	      4.69404615	     -6.82832292	      2.14788221	    -17.01958576	     -2.10714516	     -2.04469613	     -5.72223926	      2.63873961
      1.63133333	      2.21018832	      7.19426492	     -0.93618537	      0.55999646	      0.99828526	      0.26519245	     20.65379794	     -8.96631481	      1.07437733	    -60.72184114	      8.43570975	    -11.41054344	     -0.38603629	     -0.40329211	     13.76753252	      4.95926445	     -6.60488978	      2.22179866	    -17.04728016	     -2.12976518	     -2.13707215	     -5.59782226	      2.51679493
      1.63550000	      2.28204214	      7.09433531	     -0.77440972	      0.56463455	      0.99853724	      0.26495601	     21.01946825	     -8.83718891	      0.99847712	    -59.93221492	      8.69609972	    -11.46196744	     -0.48900260	     -0.94802069	     13.66203658	      5.24561368	     -6.33774923	      2.29165550	    -17.10871743	     -2.15386585	     -2.27320114	     -5.49239460	      2.33253857
      1.63966667	      2.36283778	      7.02896042	     -0.62913084	      0.56927686	      0.99874770	      0.26472986	     21.37819225	     -8.75129502	      0.93003402	    -59.13318353	      8.89391489	    -11.51521091	     -0.67920419	     -1.52670699	     13.59169725	      5.56971731	     -6.01315796	      2.31419864	    -17.27858607	     -2.19837951	     -2.42948193	     -5.42383934	      2.04435697
      1.64383333	      2.39385845	      6.94239417	     -0.46106571	      0.57389965	      0.99887832	      0.26449522	     21.76624318	     -8.64009517	      0.84657241	    -58.29137074	      9.08564935	    -11.56798621	     -0.86993049	     -2.01765838	     13.49238309	      5.86071587	     -5.76028735	      2.38927285	    -17.36359416	     -2.23957404	     -2.52053074	     -5.33274455	      1.85084869
      1.64800000	      2.44944409	      6.86026487	     -0.30158709	      0.57851924	      0.99901035	      0.26428714	     22.11386852	     -8.53214305	      0.76463614	    -57.41828755	      9.24957377	    -11.61664606	     -1.06508918	     -2.53313721	     13.39196867	      6.12981267	     -5.50581424	      2.46360567	    -17.41264712	     -2.27838220	     -2.64395419	     -5.24931390	      1.66113982
      1.65216667	      2.48072909	      6.78971012	     -0.13768361	      0.58312521	      0.99907552	      0.26407551	     22.47880571	     -8.43906321	      0.68118254	    -56.52633439	      9.38857711	    -11.67076525	     -1.27851425	     -3.01429978	     13.30046365	      6.40032850	     -5.26563868	      2.54452687	    -17.46480734	     -2.31721903	     -2.74201269	     -5.17930648	      1.45798007
      1.65633333	      2.48773515	      6.71746532	      0.03541733	      0.58772340	      0.99908748	      0.26386227	     22.85234640	     -8.34782721	      0.58356032	    -55.60363548	      9.52592483	    -11.69910827	     -1.38005603	     -3.44322865	     13.20248938	      6.62454920	     -5.07721682	      2.66367620	    -17.44457108	     -2.33178091	     -2.80268369	     -5.10444322	      1.35566817
      1.66050000	      2.54028953	      6.66806773	      0.17782087	      0.59232750	      0.99909977	      0.26368512	     23.17711252	     -8.27610777	      0.50863138	    -54.67265190	      9.61032718	    -11.75679960	     -1.58578949	     -3.95755980	     13.12595619	      6.88807029	     -4.80839117	      2.74868424	    -17.49424370	     -2.36389033	     -2.92504851	     -5.05818373	      1.08870344
      1.66466667	      2.57305451	      6.62175759	      0.32802780	      0.59692633	      0.99907202	      0.26350152	     23.50754436	     -8.21296564	      0.42076897	    -53.71681723	      9.69703280	    -11.78157091	     -1.79271778	     -4.43286710	     13.04928378	      7.13197851	     -4.57698218	      2.85325198	    -17.51104581	     -2.39401977	     -3.02567075	     -5.01443985	      0.90059371
      1.66883333	      2.52116596	      6.59300692	      0.46716061	      0.60151333	      0.99888619	      0.26334415	     23.93265829	     -8.15741825	      0.36387880	    -52.76186101	      9.80297574	    -11.78421799	     -1.83531956	     -4.79599452	     12.98925131	      7.32144789	     -4.37820121	      2.98478063	    -17.42850456	     -2.39564879	     -3.01158227	     -4.98701044	      0.85760492
      1.67300000	      2.57735253	      6.53256020	      0.61978132	      0.60610129	      0.99884215	      0.26317290	     24.19838760	     -8.08308799	      0.25077721	    -51.74401507	      9.83105273	    -11.82288016	     -2.02088709	     -5.28731384	     12.89028968	      7.55744961	     -4.16408159	      3.10362427	    -17.45828362	     -2.41954092	     -3.15497624	     -4.93041766	      0.56195127
      1.67716667	      2.51834771	      6.53146916	      0.74207570	      0.61067809	      0.99856305	      0.26304052	     24.61837938	     -8.05648668	      0.20440949	    -50.76916395	      9.92702782	    -11.80385775	     -2.06112353	     -5.63858978	     12.85668853	      7.73336731	     -3.96942696	      3.24004065	    -17.37976889	     -2.42041914	     -3.13532179	     -4.93906029	      0.51698332
      1.68133333	      2.56474302	      6.47987068	      0.88342263	      0.61527672	      0.99846405	      0.26288654	     24.86746050	     -7.99272593	      0.08873347	    -49.71101415	      9.94298055	    -11.76961856	     -2.22862467	     -6.11437331	     12.76237621	      7.95038395	     -3.76454948	      3.37065920	    -17.38112527	     -2.44131585	     -3.26522650	     -4.88562934	      0.23666949
      1.68550000	      2.48829783	      6.47817172	      0.99582485	      0.61985745	      0.99812002	      0.26278101	     25.27846317	     -7.96246137	      0.04060728	    -48.69608957	     10.03158908	    -11.73289766	     -2.26655389	     -6.44503247	     12.72452969	      8.11814520	     -3.57229765	      3.51057096	    -17.30158075	     -2.44232898	     -3.22968808	     -4.89068140	      0.19080327
      1.68966667	      2.48395676	      6.42907560	      1.13729164	      0.62444798	      0.99790853	      0.26264134	     25.55637065	     -7.90470412	     -0.08696864	    -47.60186823	     10.04517821	    -11.63574519	     -2.35788211	     -6.84075112	     12.63015802	      8.29506342	     -3.41478038	      3.66811525	    -17.27172598	     -2.45331497	     -3.29081365	     -4.83880363	      0.00814217
      1.69383333	      2.44770398	      6.42476465	      1.24205991	      0.62904195	      0.99756393	      0.26254049	     25.88799798	     -7.87935367	     -0.16078129	    -46.54024314	     10.10513735	    -11.52460233	     -2.43166531	     -7.21488011	     12.58606780	      8.45912733	     -3.22544920	      3.81727034	    -17.21116888	     -2.46266410	     -3.30113367	     -4.83564987	     -0.13419157
      1.69800000	      2.42440520	      6.42331123	      1.33333755	      0.63362238	      0.99722853	      0.26247587	     26.19281213	     -7.85119286	     -0.22827239	    -45.45672389	     10.14410096	    -11.34644188	     -2.52888244	     -7.60317982	     12.54245206	      8.62043485	     -3.03043134	      3.95978589	    -17.14872076	     -2.48021700	     -3.36249196	     -4.85037781	     -0.31609330
      1.70216667	      2.36591605	      6.41639336	      1.42620926	      0.63824467	      0.99682517	      0.26240075	     26.51676539	     -7.82145258	     -0.31061085	    -44.35478680	     10.20320202	    -11.18243222	     -2.58500965	     -7.94770030	     12.49461797	      8.75613902	     -2.85277733	      4.11840611	    -17.08598477	     -2.49098218	     -3.33207018	     -4.84011708	     -0.41360444
      1.70633333	      2.27934641	      6.44007337	      1.48852012	      0.64282675	      0.99632420	      0.26239352	     26.88377563	     -7.79905923	     -0.32690109	    -43.27061735	     10.27396682	    -11.03764874	     -2.60809436	     -8.26706695	     12.47944235	      8.90400899	     -2.65381920	      4.27324900	    -16.99757998	     -2.49413463	     -3.30315317	     -4.88644951	     -0.47601576
      1.71050000	      2.25632946	      6.42996882	      1.58207354	      0.64745270	      0.99592550	      0.26231069	     27.13116820	     -7.78258028	     -0.45868045	    -42.11857388	     10.29275240	    -10.64754766	     -2.67180581	     -8.63808978	     12.42549222	      9.02640160	     -2.50284741	      4.43929978	    -16.93524093	     -2.52134950	     -3.33532794	     -4.87127736	     -0.68099048
      1.71466667	      2.17988789	      6.42591533	      1.65740344	      0.65208417	      0.99543461	      0.26228823	     27.43381091	     -7.74917831	     -0.54547989	    -40.97061848	     10.35043411	    -10.35493612	     -2.70836792	     -8.95724353	     12.37818232	      9.15352189	     -2.33457576	      4.60321716	    -16.86566939	     -2.54389413	     -3.31323460	     -4.88042697	     -0.78219434
      1.71883333	      2.11043217	      6.42028092	      1.71783067	      0.65675306	      0.99491384	      0.26228058	     27.71626435	     -7.71287591	     -0.63949500	    -39.80973077	     10.40568886	    -10.05567593	     -2.72426717	     -9.29154194	     12.32941844	      9.25456166	     -2.15237285	      4.77660909	    -16.79318631	     -2.56164443	     -3.27014972	     -4.87742362	     -0.86142274
      1.72300000	      2.03884008	      6.42128067	      1.77662940	      0.66140068	      0.99436472	      0.26229159	     27.98888608	     -7.68202667	     -0.73569862	    -38.63655501	     10.44957886	     -9.66011978	     -2.72781224	     -9.61335572	     12.28677775	      9.36425344	     -1.98802087	      4.94756935	    -16.70935118	     -2.58506747	     -3.25889467	     -4.89330682	     -0.95984370
      1.72716667	      1.97894465	      6.44199416	      1.82607996	      0.66606818	      0.99379910	      0.26228926	     28.23987323	     -7.67479796	     -0.83545299	    -37.45659791	     10.49885975	     -9.20331161	     -2.71395084	     -9.95005080	     12.26806461	      9.45997411	     -1.82404084	      5.11890811	    -16.61479433	     -2.61981348	     -3.23907616	     -4.91330773	     -1.06569504
      1.73133333	      1.89725716	      6.44172861	      1.87261172	      0.67077853	      0.99318466	      0.26232022	     28.49561967	     -7.64279940	     -0.95658215	    -36.26165927	     10.54804819	     -8.73204768	     -2.67342993	    -10.26940155	     12.22405668	      9.54830956	     -1.64766034	      5.30555845	    -16.51246577	     -2.66698872	     -3.19428982	     -4.92631106	     -1.16228466
